<svg id="svg" xmlns="http://www.w3.org/2000/svg" xmlns:xlink="http://www.w3.org/1999/xlink" width="400" height="300" viewBox="0, 0, 400,300"><g id="svgg"><path id="path0" d="M47.917 73.333 L 47.917 117.500 186.875 117.500 L 325.833 117.500 325.833 73.333 L 325.833 29.167 186.875 29.167 L 47.917 29.167 47.917 73.333 M181.250 34.956 C 183.427 35.408,186.146 36.058,187.292 36.401 C 188.438 36.743,190.091 37.236,190.966 37.497 C 196.344 39.101,203.444 43.727,205.886 47.219 C 212.130 56.147,214.106 56.887,235.625 58.345 C 238.833 58.563,243.240 58.931,245.417 59.163 C 247.594 59.395,253.031 59.970,257.500 60.441 C 265.993 61.336,273.328 62.215,277.917 62.888 C 294.823 65.367,305.678 67.345,315.000 69.647 C 320.236 70.940,318.593 71.086,310.747 70.025 C 307.242 69.550,302.969 68.974,301.250 68.744 C 292.730 67.602,278.026 66.393,255.625 64.990 C 221.351 62.844,163.848 62.864,138.958 65.030 C 116.142 67.017,105.498 68.616,94.583 71.699 C 71.937 78.096,69.655 89.589,89.802 95.778 C 101.838 99.474,115.466 101.151,148.333 102.980 C 159.433 103.598,201.034 103.630,210.208 103.028 C 217.754 102.533,218.226 102.755,213.219 104.443 C 194.929 110.607,183.086 112.077,151.458 112.105 C 81.507 112.168,47.586 100.562,57.195 79.854 C 61.666 70.216,80.633 62.514,108.542 59.003 C 118.626 57.735,120.707 57.509,124.792 57.244 C 131.669 56.797,136.649 53.437,139.558 47.281 C 144.713 36.370,162.604 31.081,181.250 34.956 M164.167 37.782 C 151.426 39.843,144.150 45.720,144.657 53.542 L 144.792 55.625 157.708 55.502 C 164.813 55.434,178.121 55.569,187.284 55.802 C 205.446 56.262,204.802 56.338,204.734 53.761 C 204.501 44.861,180.019 35.218,164.167 37.782 M313.333 71.599 L 316.458 71.949 312.247 72.016 C 302.935 72.165,289.952 73.591,275.208 76.086 C 252.176 79.982,236.672 86.007,224.653 95.732 C 222.743 97.277,220.594 99.010,219.876 99.583 L 218.571 100.625 219.574 99.167 C 223.447 93.536,233.609 85.043,240.738 81.477 C 256.086 73.800,290.808 69.075,313.333 71.599 " stroke="none" fill="#000000" fill-rule="evenodd"></path></g></svg>