<svg id="svg" xmlns="http://www.w3.org/2000/svg" xmlns:xlink="http://www.w3.org/1999/xlink" width="400" height="536.8700265251989" viewBox="0, 0, 400,536.8700265251989"><g id="svgg"><path id="path0" d="M397.763 0.468 C 396.022 2.210,349.758 8.516,322.847 10.680 L 306.701 11.979 303.481 19.714 C 294.794 40.581,292.249 58.238,293.203 91.023 C 294.504 135.726,283.092 161.192,251.989 182.991 C 247.905 185.854,244.382 188.327,244.160 188.488 C 243.939 188.648,246.953 192.229,250.858 196.447 C 263.335 209.923,274.148 228.233,278.491 243.236 C 280.539 250.311,280.156 250.163,287.011 246.528 C 325.156 226.302,354.555 162.997,354.266 101.708 C 354.103 67.267,369.885 30.726,395.650 5.885 C 398.042 3.579,400.000 1.311,400.000 0.846 C 400.000 -0.060,398.538 -0.306,397.763 0.468 M244.032 16.069 C 234.403 17.171,219.363 18.669,210.610 19.396 L 194.695 20.717 193.939 37.680 C 191.773 86.252,180.533 131.062,159.411 175.334 L 152.450 189.925 145.456 193.788 C 113.268 211.566,80.200 249.347,57.812 293.924 C 51.752 305.991,51.891 306.116,62.189 297.881 C 132.141 241.942,207.302 220.748,257.297 242.863 C 264.098 245.871,264.123 245.729,258.950 233.178 C 253.109 219.003,245.628 207.946,232.437 193.988 L 221.741 182.671 243.962 101.150 C 256.183 56.313,266.502 18.316,266.893 16.711 C 267.750 13.194,268.859 13.225,244.032 16.069 M67.374 31.307 C 47.533 33.271,29.907 34.908,28.205 34.945 C 23.116 35.057,25.891 36.303,39.538 40.033 C 69.603 48.252,74.868 54.483,74.737 81.698 C 74.646 100.683,66.793 129.845,56.735 148.547 C 28.792 200.506,21.402 251.593,37.007 284.939 C 41.248 294.001,42.296 293.673,48.214 281.432 C 65.146 246.407,90.269 214.286,111.905 200.000 C 118.255 195.807,119.841 194.250,119.471 192.573 C 113.901 167.328,113.472 161.322,116.267 147.701 C 118.146 138.540,123.374 127.070,131.952 113.284 C 154.927 76.361,152.485 44.735,125.625 31.329 C 116.967 27.008,110.838 27.005,67.374 31.307 M186.375 271.095 C 153.611 276.420,119.566 291.059,90.451 312.341 C 82.061 318.473,79.587 321.219,83.554 319.994 C 88.580 318.444,126.953 314.709,166.493 311.923 C 182.434 310.800,183.134 310.648,193.837 305.988 C 221.784 293.819,248.935 287.292,271.957 287.209 C 288.772 287.149,288.783 287.210,270.675 280.046 C 246.784 270.593,212.115 266.912,186.375 271.095 M254.642 302.050 C 241.566 304.192,207.697 314.027,206.451 316.043 C 206.154 316.523,209.356 317.513,213.566 318.244 C 236.855 322.288,251.748 331.336,251.748 341.442 C 251.748 358.276,216.290 382.544,175.424 393.678 L 166.764 396.038 162.427 407.951 C 157.098 422.590,157.076 421.927,162.899 421.927 C 177.166 421.927,182.457 432.826,188.857 475.405 L 191.181 490.863 197.620 492.193 C 214.530 495.686,232.508 504.200,245.099 514.679 C 248.597 517.590,251.450 519.357,251.438 518.606 C 251.427 517.856,245.724 494.869,238.765 467.525 C 226.293 418.517,226.145 417.799,228.441 417.204 C 251.237 411.298,280.539 384.613,294.660 356.897 C 314.338 318.277,297.389 295.047,254.642 302.050 M138.462 330.653 C 119.288 331.782,33.974 341.477,26.525 343.373 C 24.543 343.878,26.019 344.420,32.361 345.518 C 57.009 349.786,68.435 357.801,68.435 370.822 C 68.435 380.300,65.652 384.765,48.224 403.254 C 23.371 429.620,12.165 448.463,5.264 475.492 C 0.741 493.208,-1.363 521.442,0.966 533.156 L 1.810 537.401 4.284 531.565 C 28.828 473.675,75.090 432.002,123.785 423.919 L 128.207 423.185 132.539 409.572 C 134.921 402.085,136.870 395.692,136.870 395.366 C 136.870 395.039,132.337 394.635,126.796 394.468 L 116.721 394.164 136.361 362.969 C 147.162 345.812,155.865 331.639,155.700 331.473 C 155.032 330.806,144.432 330.301,138.462 330.653 " stroke="none" fill="#000000" fill-rule="evenodd"></path></g></svg>